<?xml version="1.0" encoding="UTF-8"?>
<!-- Created with Inkscape (http://www.inkscape.org/) -->
<svg width="140mm" height="25mm" version="1.1" viewBox="0 0 140 25" xmlns="http://www.w3.org/2000/svg" xmlns:xlink="http://www.w3.org/1999/xlink">
<defs>
<marker id="marker7389" style="overflow:visible" orient="auto">
<path transform="scale(-.6)" d="m8.719 4.034-10.93-4.018 10.93-4.018c-1.745 2.372-1.735 5.617-6e-7 8.035z" style="fill-rule:evenodd;stroke-linejoin:round;stroke-width:.625;stroke:#000"/>
</marker>
</defs>
<g transform="translate(0,-272)">
<rect y="272" width="140" height="25" style="fill-opacity:.9715;fill:#fff;opacity:.99"/>
<rect id="rect829" x="5" y="277" width="15" height="15" ry="0" style="fill:none;opacity:.99;stroke-linecap:round;stroke-linejoin:round;stroke-width:.4;stroke:#000"/>
<text id="text833" x="8" y="283" style="fill:#000000;font-family:'DejaVu Sans Mono';font-size:3.881px;letter-spacing:0px;line-height:125%;stroke-width:.2646px;word-spacing:0px" xml:space="preserve"><tspan x="8" y="283" style="font-size:3.881px;stroke-width:.2646px">data</tspan></text>
<text id="text837" x="8" y="289" style="fill:#000000;font-family:'DejaVu Sans Mono';font-size:3.881px;letter-spacing:0px;line-height:125%;stroke-width:.2646px;word-spacing:0px" xml:space="preserve"><tspan x="8" y="289" style="font-size:3.881px;stroke-width:.2646px">next</tspan></text>
<path id="path839" d="m18 288h15" style="fill:none;marker-end:url(#marker7389);stroke-width:.4;stroke:#000"/>
<use id="use1934" transform="translate(30)" width="100%" height="100%" xlink:href="#rect829"/>
<use id="use1936" transform="translate(30)" width="100%" height="100%" xlink:href="#text833"/>
<use id="use1938" transform="translate(30)" width="100%" height="100%" xlink:href="#text837"/>
<use id="use1940" transform="translate(30)" width="100%" height="100%" xlink:href="#path839"/>
<use id="use1942" transform="translate(30)" width="100%" height="100%" xlink:href="#use1934"/>
<use id="use1944" transform="translate(30)" width="100%" height="100%" xlink:href="#use1936"/>
<use id="use1946" transform="translate(30)" width="100%" height="100%" xlink:href="#use1938"/>
<use id="use1948" transform="translate(30)" width="100%" height="100%" xlink:href="#use1940"/>
<use transform="translate(30)" width="100%" height="100%" xlink:href="#use1942"/>
<use transform="translate(30)" width="100%" height="100%" xlink:href="#use1944"/>
<use transform="translate(30)" width="100%" height="100%" xlink:href="#use1946"/>
<use transform="translate(30)" width="100%" height="100%" xlink:href="#use1948"/>
<text x="125" y="289" style="fill:#000000;font-family:'DejaVu Sans Mono';font-size:3.881px;letter-spacing:0px;line-height:125%;stroke-width:.2646px;word-spacing:0px" xml:space="preserve"><tspan x="125" y="289" style="font-size:3.881px;stroke-width:.2646px">Nil</tspan></text>
</g>
</svg>
